<svg width="227" height="251" viewBox="0 0 227 251" fill="none" xmlns="http://www.w3.org/2000/svg">
<path d="M160.178 42.085C166.068 42.0852 170.844 46.8611 170.844 52.752C170.844 58.6429 166.068 63.4187 160.178 63.4189C154.97 63.4189 150.637 59.6868 149.701 54.752H9.17176V223.667H205.172V76.9775L196.793 58.7539V21.1436C191.858 20.2072 188.126 15.8742 188.126 10.667C188.126 4.77597 192.902 2.47386e-05 198.793 0C204.684 0 209.46 4.77595 209.46 10.667C209.46 15.8743 205.728 20.2072 200.793 21.1436V57.877L209.172 76.1016V227.667H5.17176V50.752H149.701C150.637 45.8173 154.97 42.085 160.178 42.085Z" fill="#CEB37E"/>
<path d="M185.172 45.334C188.117 45.334 190.505 47.7215 190.505 50.667C190.505 53.2706 188.639 55.436 186.172 55.9043V131.429C188.639 131.897 190.505 134.063 190.505 136.667C190.505 139.613 188.117 142 185.172 142C182.226 142 179.839 139.613 179.839 136.667C179.839 134.063 181.704 131.897 184.172 131.429V55.9043C181.704 55.436 179.839 53.2706 179.839 50.667C179.839 47.7215 182.226 45.334 185.172 45.334ZM220.172 72.167V34.4043C217.704 33.936 215.839 31.7706 215.839 29.167C215.839 26.2215 218.226 23.834 221.172 23.834C224.117 23.834 226.505 26.2215 226.505 29.167C226.505 31.7706 224.639 33.936 222.172 34.4043V72.167C222.172 72.7193 221.724 73.167 221.172 73.167C220.619 73.167 220.172 72.7193 220.172 72.167Z" fill="#CEB37E"/>
<path d="M130.232 141.667V86.917H140.432L156.407 132.442C156.307 130.992 156.182 129.267 156.032 127.267C155.882 125.267 155.757 123.192 155.657 121.042C155.607 118.892 155.582 116.942 155.582 115.192V86.917H163.082V141.667H152.882L136.982 96.142C137.082 97.442 137.182 99.067 137.282 101.017C137.432 102.967 137.532 104.992 137.582 107.092C137.682 109.192 137.732 111.142 137.732 112.942V141.667H130.232Z" fill="#CEB37E"/>
<path d="M86.2364 141.667V86.917H118.411V94.117H94.1864V109.642H115.786V116.767H94.1864V134.467H118.411V141.667H86.2364Z" fill="#CEB37E"/>
<path d="M57.0157 142.417C53.6157 142.417 50.6407 141.792 48.0907 140.542C45.5907 139.242 43.6407 137.392 42.2407 134.992C40.8907 132.542 40.2157 129.692 40.2157 126.442V102.142C40.2157 98.842 40.8907 95.992 42.2407 93.592C43.6407 91.192 45.5907 89.367 48.0907 88.117C50.6407 86.817 53.6157 86.167 57.0157 86.167C60.4157 86.167 63.3657 86.817 65.8657 88.117C68.3657 89.417 70.2907 91.267 71.6407 93.667C73.0407 96.017 73.7407 98.842 73.7407 102.142H65.6407C65.6407 99.292 64.8907 97.117 63.3907 95.617C61.8907 94.117 59.7657 93.367 57.0157 93.367C54.2657 93.367 52.1157 94.117 50.5657 95.617C49.0657 97.117 48.3157 99.267 48.3157 102.067V126.442C48.3157 129.242 49.0657 131.417 50.5657 132.967C52.1157 134.517 54.2657 135.292 57.0157 135.292C59.7657 135.292 61.8907 134.517 63.3907 132.967C64.8907 131.417 65.6407 129.242 65.6407 126.442V120.292H55.4407V113.167H73.7407V126.442C73.7407 129.692 73.0407 132.517 71.6407 134.917C70.2907 137.317 68.3657 139.167 65.8657 140.467C63.3657 141.767 60.4157 142.417 57.0157 142.417Z" fill="#CEB37E"/>
<path d="M146.537 212.417C141.787 212.417 137.937 211.217 134.987 208.817C132.037 206.367 130.387 203.092 130.037 198.992H138.062C138.312 200.992 139.162 202.542 140.612 203.642C142.062 204.742 144.062 205.292 146.612 205.292C149.462 205.292 151.612 204.542 153.062 203.042C154.562 201.492 155.312 199.342 155.312 196.592V191.267C155.312 188.467 154.587 186.317 153.137 184.817C151.687 183.267 149.537 182.492 146.687 182.492C144.887 182.492 143.337 182.917 142.037 183.767C140.737 184.567 139.787 185.692 139.187 187.142H131.162L131.537 156.917H161.387V164.267H139.262L139.112 181.292H141.212L139.037 183.242C139.037 180.892 139.962 179.042 141.812 177.692C143.662 176.342 146.137 175.667 149.237 175.667C153.687 175.667 157.137 177.042 159.587 179.792C162.087 182.492 163.337 186.317 163.337 191.267V196.592C163.337 201.442 161.862 205.292 158.912 208.142C155.962 210.992 151.837 212.417 146.537 212.417Z" fill="#CEB37E"/>
<path d="M209.674 250.847C208.774 250.847 207.994 250.697 207.334 250.397C206.674 250.097 206.164 249.671 205.804 249.119C205.456 248.555 205.276 247.895 205.264 247.139H207.514C207.514 247.679 207.706 248.105 208.09 248.417C208.486 248.717 209.02 248.867 209.692 248.867C210.34 248.867 210.844 248.717 211.204 248.417C211.576 248.117 211.762 247.703 211.762 247.175C211.762 246.731 211.63 246.347 211.366 246.023C211.114 245.687 210.748 245.459 210.268 245.339L208.756 244.925C207.724 244.661 206.926 244.187 206.362 243.503C205.81 242.819 205.534 241.991 205.534 241.019C205.534 240.275 205.702 239.627 206.038 239.075C206.374 238.523 206.848 238.097 207.46 237.797C208.084 237.497 208.816 237.347 209.656 237.347C210.928 237.347 211.936 237.677 212.68 238.337C213.424 238.985 213.802 239.861 213.814 240.965H211.564C211.564 240.449 211.396 240.047 211.06 239.759C210.724 239.459 210.25 239.309 209.638 239.309C209.05 239.309 208.594 239.447 208.27 239.723C207.946 239.999 207.784 240.389 207.784 240.893C207.784 241.349 207.904 241.739 208.144 242.063C208.396 242.375 208.756 242.597 209.224 242.729L210.79 243.161C211.834 243.425 212.632 243.899 213.184 244.583C213.736 245.255 214.012 246.089 214.012 247.085C214.012 247.829 213.832 248.489 213.472 249.065C213.112 249.629 212.608 250.067 211.96 250.379C211.312 250.691 210.55 250.847 209.674 250.847Z" fill="#CEB37E"/>
<path d="M194.741 250.667V237.527H197.495L201.149 248.147C201.113 247.763 201.071 247.313 201.023 246.797C200.987 246.269 200.957 245.735 200.933 245.195C200.909 244.643 200.897 244.163 200.897 243.755V237.527H202.949V250.667H200.195L196.577 240.047C196.601 240.395 196.631 240.815 196.667 241.307C196.703 241.799 196.733 242.303 196.757 242.819C196.781 243.335 196.793 243.809 196.793 244.241V250.667H194.741Z" fill="#CEB37E"/>
<path d="M188.052 250.847C187.212 250.847 186.48 250.691 185.856 250.379C185.244 250.055 184.77 249.605 184.434 249.029C184.11 248.441 183.948 247.751 183.948 246.959V241.235C183.948 240.443 184.11 239.759 184.434 239.183C184.77 238.595 185.244 238.145 185.856 237.833C186.48 237.509 187.212 237.347 188.052 237.347C188.904 237.347 189.636 237.509 190.248 237.833C190.86 238.145 191.328 238.595 191.652 239.183C191.988 239.759 192.156 240.437 192.156 241.217V246.959C192.156 247.751 191.988 248.441 191.652 249.029C191.328 249.605 190.86 250.055 190.248 250.379C189.636 250.691 188.904 250.847 188.052 250.847ZM188.052 248.867C188.664 248.867 189.126 248.705 189.438 248.381C189.75 248.045 189.906 247.571 189.906 246.959V241.235C189.906 240.611 189.75 240.137 189.438 239.813C189.126 239.489 188.664 239.327 188.052 239.327C187.44 239.327 186.978 239.489 186.666 239.813C186.354 240.137 186.198 240.611 186.198 241.235V246.959C186.198 247.571 186.354 248.045 186.666 248.381C186.99 248.705 187.452 248.867 188.052 248.867Z" fill="#CEB37E"/>
<path d="M173.479 250.667V248.687H176.126V239.507H173.479V237.527H181.04V239.507H178.393V248.687H181.04V250.667H173.479Z" fill="#CEB37E"/>
<path d="M165.333 250.667V239.615H161.895V237.527H171.039V239.615H167.601V250.667H165.333Z" fill="#CEB37E"/>
<path d="M155.674 250.847C154.39 250.847 153.382 250.499 152.65 249.803C151.93 249.095 151.57 248.135 151.57 246.923V237.527H153.838V246.905C153.838 247.529 153.994 248.015 154.306 248.363C154.618 248.711 155.074 248.885 155.674 248.885C156.262 248.885 156.712 248.711 157.024 248.363C157.348 248.015 157.51 247.529 157.51 246.905V237.527H159.778V246.923C159.778 248.135 159.418 249.095 158.698 249.803C157.978 250.499 156.97 250.847 155.674 250.847Z" fill="#CEB37E"/>
<path d="M141.335 250.667V237.527H143.585V248.579H149.165V250.667H141.335Z" fill="#CEB37E"/>
<path d="M134.088 250.847C133.248 250.847 132.516 250.691 131.892 250.379C131.28 250.055 130.806 249.605 130.47 249.029C130.146 248.441 129.984 247.751 129.984 246.959V241.235C129.984 240.443 130.146 239.759 130.47 239.183C130.806 238.595 131.28 238.145 131.892 237.833C132.516 237.509 133.248 237.347 134.088 237.347C134.94 237.347 135.672 237.509 136.284 237.833C136.896 238.145 137.364 238.595 137.688 239.183C138.024 239.759 138.192 240.437 138.192 241.217V246.959C138.192 247.751 138.024 248.441 137.688 249.029C137.364 249.605 136.896 250.055 136.284 250.379C135.672 250.691 134.94 250.847 134.088 250.847ZM134.088 248.867C134.7 248.867 135.162 248.705 135.474 248.381C135.786 248.045 135.942 247.571 135.942 246.959V241.235C135.942 240.611 135.786 240.137 135.474 239.813C135.162 239.489 134.7 239.327 134.088 239.327C133.476 239.327 133.014 239.489 132.702 239.813C132.39 240.137 132.234 240.611 132.234 241.235V246.959C132.234 247.571 132.39 248.045 132.702 248.381C133.026 248.705 133.488 248.867 134.088 248.867Z" fill="#CEB37E"/>
<path d="M123.331 250.847C122.431 250.847 121.651 250.697 120.991 250.397C120.331 250.097 119.821 249.671 119.461 249.119C119.113 248.555 118.933 247.895 118.921 247.139H121.171C121.171 247.679 121.363 248.105 121.747 248.417C122.143 248.717 122.677 248.867 123.349 248.867C123.997 248.867 124.501 248.717 124.861 248.417C125.233 248.117 125.419 247.703 125.419 247.175C125.419 246.731 125.287 246.347 125.023 246.023C124.771 245.687 124.405 245.459 123.925 245.339L122.413 244.925C121.381 244.661 120.583 244.187 120.019 243.503C119.467 242.819 119.191 241.991 119.191 241.019C119.191 240.275 119.359 239.627 119.695 239.075C120.031 238.523 120.505 238.097 121.117 237.797C121.741 237.497 122.473 237.347 123.313 237.347C124.585 237.347 125.593 237.677 126.337 238.337C127.081 238.985 127.459 239.861 127.471 240.965H125.221C125.221 240.449 125.053 240.047 124.717 239.759C124.381 239.459 123.907 239.309 123.295 239.309C122.707 239.309 122.251 239.447 121.927 239.723C121.603 239.999 121.441 240.389 121.441 240.893C121.441 241.349 121.561 241.739 121.801 242.063C122.053 242.375 122.413 242.597 122.881 242.729L124.447 243.161C125.491 243.425 126.289 243.899 126.841 244.583C127.393 245.255 127.669 246.089 127.669 247.085C127.669 247.829 127.489 248.489 127.129 249.065C126.769 249.629 126.265 250.067 125.617 250.379C124.969 250.691 124.207 250.847 123.331 250.847Z" fill="#CEB37E"/>
<path d="M100.575 250.667V245.897L96.7227 237.527H99.0807L101.133 242.081C101.289 242.441 101.421 242.795 101.529 243.143C101.637 243.491 101.709 243.761 101.745 243.953C101.793 243.761 101.865 243.491 101.961 243.143C102.069 242.795 102.201 242.441 102.357 242.081L104.355 237.527H106.695L102.843 245.897V250.667H100.575Z" fill="#CEB37E"/>
<path d="M90.9877 250.847C90.1477 250.847 89.4098 250.691 88.7738 250.379C88.1498 250.055 87.6638 249.605 87.3158 249.029C86.9798 248.441 86.8117 247.751 86.8117 246.959V241.235C86.8117 240.431 86.9798 239.741 87.3158 239.165C87.6638 238.589 88.1498 238.145 88.7738 237.833C89.4098 237.509 90.1477 237.347 90.9877 237.347C91.8397 237.347 92.5717 237.509 93.1837 237.833C93.8077 238.145 94.2937 238.589 94.6417 239.165C94.9897 239.741 95.1637 240.431 95.1637 241.235H92.8957C92.8957 240.611 92.7277 240.137 92.3917 239.813C92.0677 239.489 91.5997 239.327 90.9877 239.327C90.3757 239.327 89.9018 239.489 89.5658 239.813C89.2298 240.137 89.0617 240.605 89.0617 241.217V246.959C89.0617 247.571 89.2298 248.045 89.5658 248.381C89.9018 248.717 90.3757 248.885 90.9877 248.885C91.5997 248.885 92.0677 248.717 92.3917 248.381C92.7277 248.045 92.8957 247.571 92.8957 246.959V245.627H90.6637V243.683H95.1637V246.959C95.1637 247.751 94.9897 248.441 94.6417 249.029C94.2937 249.605 93.8077 250.055 93.1837 250.379C92.5717 250.691 91.8397 250.847 90.9877 250.847Z" fill="#CEB37E"/>
<path d="M80.1228 250.847C79.2828 250.847 78.5508 250.691 77.9268 250.379C77.3148 250.055 76.8408 249.605 76.5048 249.029C76.1808 248.441 76.0188 247.751 76.0188 246.959V241.235C76.0188 240.443 76.1808 239.759 76.5048 239.183C76.8408 238.595 77.3148 238.145 77.9268 237.833C78.5508 237.509 79.2828 237.347 80.1228 237.347C80.9748 237.347 81.7068 237.509 82.3188 237.833C82.9308 238.145 83.3988 238.595 83.7228 239.183C84.0588 239.759 84.2268 240.437 84.2268 241.217V246.959C84.2268 247.751 84.0588 248.441 83.7228 249.029C83.3988 249.605 82.9308 250.055 82.3188 250.379C81.7068 250.691 80.9748 250.847 80.1228 250.847ZM80.1228 248.867C80.7348 248.867 81.1968 248.705 81.5088 248.381C81.8208 248.045 81.9768 247.571 81.9768 246.959V241.235C81.9768 240.611 81.8208 240.137 81.5088 239.813C81.1968 239.489 80.7348 239.327 80.1228 239.327C79.5108 239.327 79.0488 239.489 78.7368 239.813C78.4248 240.137 78.2688 240.611 78.2688 241.235V246.959C78.2688 247.571 78.4248 248.045 78.7368 248.381C79.0608 248.705 79.5228 248.867 80.1228 248.867Z" fill="#CEB37E"/>
<path d="M65.7838 250.667V237.527H68.0338V248.579H73.6138V250.667H65.7838Z" fill="#CEB37E"/>
<path d="M58.5368 250.847C57.6968 250.847 56.9648 250.691 56.3408 250.379C55.7288 250.055 55.2548 249.605 54.9188 249.029C54.5948 248.441 54.4328 247.751 54.4328 246.959V241.235C54.4328 240.443 54.5948 239.759 54.9188 239.183C55.2548 238.595 55.7288 238.145 56.3408 237.833C56.9648 237.509 57.6968 237.347 58.5368 237.347C59.3888 237.347 60.1208 237.509 60.7328 237.833C61.3448 238.145 61.8128 238.595 62.1368 239.183C62.4728 239.759 62.6408 240.437 62.6408 241.217V246.959C62.6408 247.751 62.4728 248.441 62.1368 249.029C61.8128 249.605 61.3448 250.055 60.7328 250.379C60.1208 250.691 59.3888 250.847 58.5368 250.847ZM58.5368 248.867C59.1488 248.867 59.6108 248.705 59.9228 248.381C60.2348 248.045 60.3908 247.571 60.3908 246.959V241.235C60.3908 240.611 60.2348 240.137 59.9228 239.813C59.6108 239.489 59.1488 239.327 58.5368 239.327C57.9248 239.327 57.4628 239.489 57.1508 239.813C56.8388 240.137 56.6828 240.611 56.6828 241.235V246.959C56.6828 247.571 56.8388 248.045 57.1508 248.381C57.4748 248.705 57.9368 248.867 58.5368 248.867Z" fill="#CEB37E"/>
<path d="M43.6399 250.667V237.527H46.3939L50.0479 248.147C50.0119 247.763 49.9699 247.313 49.9219 246.797C49.8859 246.269 49.8559 245.735 49.8319 245.195C49.8079 244.643 49.7959 244.163 49.7959 243.755V237.527H51.8479V250.667H49.0939L45.4759 240.047C45.4999 240.395 45.5299 240.815 45.5659 241.307C45.6019 241.799 45.6319 242.303 45.6559 242.819C45.6799 243.335 45.6919 243.809 45.6919 244.241V250.667H43.6399Z" fill="#CEB37E"/>
<path d="M32.9369 250.667V237.527H35.1869V242.801H38.7149V237.527H40.9649V250.667H38.7149V244.889H35.1869V250.667H32.9369Z" fill="#CEB37E"/>
<path d="M26.2299 250.847C25.3899 250.847 24.6519 250.691 24.0159 250.379C23.3919 250.055 22.9059 249.605 22.5579 249.029C22.2219 248.441 22.0539 247.751 22.0539 246.959V241.235C22.0539 240.431 22.2219 239.741 22.5579 239.165C22.9059 238.589 23.3919 238.145 24.0159 237.833C24.6519 237.509 25.3899 237.347 26.2299 237.347C27.0819 237.347 27.8139 237.509 28.4259 237.833C29.0499 238.145 29.5359 238.589 29.8839 239.165C30.2319 239.741 30.4059 240.431 30.4059 241.235H28.1379C28.1379 240.611 27.9699 240.137 27.6339 239.813C27.3099 239.489 26.8419 239.327 26.2299 239.327C25.6179 239.327 25.1439 239.489 24.8079 239.813C24.4719 240.137 24.3039 240.605 24.3039 241.217V246.959C24.3039 247.571 24.4719 248.045 24.8079 248.381C25.1439 248.705 25.6179 248.867 26.2299 248.867C26.8419 248.867 27.3099 248.705 27.6339 248.381C27.9699 248.045 28.1379 247.571 28.1379 246.959H30.4059C30.4059 247.739 30.2319 248.423 29.8839 249.011C29.5359 249.599 29.0499 250.055 28.4259 250.379C27.8139 250.691 27.0819 250.847 26.2299 250.847Z" fill="#CEB37E"/>
<path d="M11.549 250.667V237.527H19.433V239.489H13.763V242.909H18.803V244.853H13.763V248.705H19.433V250.667H11.549Z" fill="#CEB37E"/>
<path d="M3.438 250.667V239.615H0V237.527H9.144V239.615H5.706V250.667H3.438Z" fill="#CEB37E"/>
</svg>
