<svg width="228" height="252" viewBox="0 0 228 252" fill="none" xmlns="http://www.w3.org/2000/svg">
<path d="M150.339 53.0851C150.339 58.9761 155.114 63.7518 161.005 63.7518C166.897 63.7518 171.672 58.9761 171.672 53.0851C171.672 47.1941 166.897 42.4184 161.005 42.4184C155.114 42.4184 150.339 47.1941 150.339 53.0851ZM8 53.0851V51.0851H6V53.0851H8ZM8 226H6V228H8V226ZM208 226V228H210V226H208ZM208 76.8723H210V76.4346L209.817 76.0368L208 76.8723ZM199.621 58.649H197.621V59.0867L197.804 59.4844L199.621 58.649ZM188.954 11C188.954 16.891 193.73 21.6667 199.621 21.6667C205.512 21.6667 210.288 16.891 210.288 11C210.288 5.10896 205.512 0.333333 199.621 0.333333C193.73 0.333333 188.954 5.10896 188.954 11ZM161.005 53.0851V51.0851H8V53.0851V55.0851H161.005V53.0851ZM8 53.0851H6V226H8H10V53.0851H8ZM8 226V228H208V226V224H8V226ZM208 226H210V217.309H208H206V226H208ZM208 217.309H210V76.8723H208H206V217.309H208ZM208 76.8723L209.817 76.0368L201.438 57.8135L199.621 58.649L197.804 59.4844L206.183 77.7078L208 76.8723ZM199.621 58.649H201.621V11H199.621H197.621V58.649H199.621Z" fill="#145F90"/>
<path d="M180.667 137C180.667 139.946 183.054 142.333 186 142.333C188.946 142.333 191.333 139.946 191.333 137C191.333 134.054 188.946 131.667 186 131.667C183.054 131.667 180.667 134.054 180.667 137ZM180.667 51C180.667 53.9455 183.054 56.3333 186 56.3333C188.946 56.3333 191.333 53.9455 191.333 51C191.333 48.0545 188.946 45.6667 186 45.6667C183.054 45.6667 180.667 48.0545 180.667 51ZM221 72.5C221 73.0523 221.448 73.5 222 73.5C222.552 73.5 223 73.0523 223 72.5H221ZM216.667 29.5C216.667 32.4455 219.054 34.8333 222 34.8333C224.946 34.8333 227.333 32.4455 227.333 29.5C227.333 26.5545 224.946 24.1667 222 24.1667C219.054 24.1667 216.667 26.5545 216.667 29.5ZM186 137H187V51H186H185V137H186ZM222 72.5H223V51H222H221V72.5H222ZM222 51H223V29.5H222H221V51H222Z" fill="#145F90"/>
<path d="M57.8439 142.75C54.4439 142.75 51.4689 142.125 48.9189 140.875C46.4189 139.575 44.4689 137.725 43.0689 135.325C41.7189 132.875 41.0439 130.025 41.0439 126.775V102.475C41.0439 99.175 41.7189 96.325 43.0689 93.925C44.4689 91.525 46.4189 89.7 48.9189 88.45C51.4689 87.15 54.4439 86.5 57.8439 86.5C61.2439 86.5 64.1939 87.15 66.6939 88.45C69.1939 89.75 71.1189 91.6 72.4689 94C73.8689 96.35 74.5689 99.175 74.5689 102.475H66.4689C66.4689 99.625 65.7189 97.45 64.2189 95.95C62.7189 94.45 60.5939 93.7 57.8439 93.7C55.0939 93.7 52.9439 94.45 51.3939 95.95C49.8939 97.45 49.1439 99.6 49.1439 102.4V126.775C49.1439 129.575 49.8939 131.75 51.3939 133.3C52.9439 134.85 55.0939 135.625 57.8439 135.625C60.5939 135.625 62.7189 134.85 64.2189 133.3C65.7189 131.75 66.4689 129.575 66.4689 126.775V120.625H56.2689V113.5H74.5689V126.775C74.5689 130.025 73.8689 132.85 72.4689 135.25C71.1189 137.65 69.1939 139.5 66.6939 140.8C64.1939 142.1 61.2439 142.75 57.8439 142.75ZM87.0646 142V87.25H119.24V94.45H95.0146V109.975H116.615V117.1H95.0146V134.8H119.24V142H87.0646ZM131.06 142V87.25H141.26L157.235 132.775C157.135 131.325 157.01 129.6 156.86 127.6C156.71 125.6 156.585 123.525 156.485 121.375C156.435 119.225 156.41 117.275 156.41 115.525V87.25H163.91V142H153.71L137.81 96.475C137.91 97.775 138.01 99.4 138.11 101.35C138.26 103.3 138.36 105.325 138.41 107.425C138.51 109.525 138.56 111.475 138.56 113.275V142H131.06Z" fill="#145F90"/>
<path d="M147.365 212.75C142.615 212.75 138.765 211.55 135.815 209.15C132.865 206.7 131.215 203.425 130.865 199.325H138.89C139.14 201.325 139.99 202.875 141.44 203.975C142.89 205.075 144.89 205.625 147.44 205.625C150.29 205.625 152.44 204.875 153.89 203.375C155.39 201.825 156.14 199.675 156.14 196.925V191.6C156.14 188.8 155.415 186.65 153.965 185.15C152.515 183.6 150.365 182.825 147.515 182.825C145.715 182.825 144.165 183.25 142.865 184.1C141.565 184.9 140.615 186.025 140.015 187.475H131.99L132.365 157.25H162.215V164.6H140.09L139.94 181.625H142.04L139.865 183.575C139.865 181.225 140.79 179.375 142.64 178.025C144.49 176.675 146.965 176 150.065 176C154.515 176 157.965 177.375 160.415 180.125C162.915 182.825 164.165 186.65 164.165 191.6V196.925C164.165 201.775 162.69 205.625 159.74 208.475C156.79 211.325 152.665 212.75 147.365 212.75Z" fill="#145F90"/>
<path d="M4.266 251V239.948H0.828V237.86H9.972V239.948H6.534V251H4.266ZM12.377 251V237.86H20.261V239.822H14.591V243.242H19.631V245.186H14.591V249.038H20.261V251H12.377ZM27.0579 251.18C26.2179 251.18 25.4799 251.024 24.8439 250.712C24.2199 250.388 23.7339 249.938 23.3859 249.362C23.0499 248.774 22.8819 248.084 22.8819 247.292V241.568C22.8819 240.764 23.0499 240.074 23.3859 239.498C23.7339 238.922 24.2199 238.478 24.8439 238.166C25.4799 237.842 26.2179 237.68 27.0579 237.68C27.9099 237.68 28.6419 237.842 29.2539 238.166C29.8779 238.478 30.3639 238.922 30.7119 239.498C31.0599 240.074 31.2339 240.764 31.2339 241.568H28.9659C28.9659 240.944 28.7979 240.47 28.4619 240.146C28.1379 239.822 27.6699 239.66 27.0579 239.66C26.4459 239.66 25.9719 239.822 25.6359 240.146C25.2999 240.47 25.1319 240.938 25.1319 241.55V247.292C25.1319 247.904 25.2999 248.378 25.6359 248.714C25.9719 249.038 26.4459 249.2 27.0579 249.2C27.6699 249.2 28.1379 249.038 28.4619 248.714C28.7979 248.378 28.9659 247.904 28.9659 247.292H31.2339C31.2339 248.072 31.0599 248.756 30.7119 249.344C30.3639 249.932 29.8779 250.388 29.2539 250.712C28.6419 251.024 27.9099 251.18 27.0579 251.18ZM33.7649 251V237.86H36.0149V243.134H39.5429V237.86H41.7929V251H39.5429V245.222H36.0149V251H33.7649ZM44.4679 251V237.86H47.2219L50.8759 248.48C50.8399 248.096 50.7979 247.646 50.7499 247.13C50.7139 246.602 50.6839 246.068 50.6599 245.528C50.6359 244.976 50.6239 244.496 50.6239 244.088V237.86H52.6759V251H49.9219L46.3039 240.38C46.3279 240.728 46.3579 241.148 46.3939 241.64C46.4299 242.132 46.4599 242.636 46.4839 243.152C46.5079 243.668 46.5199 244.142 46.5199 244.574V251H44.4679ZM59.3648 251.18C58.5248 251.18 57.7928 251.024 57.1688 250.712C56.5568 250.388 56.0828 249.938 55.7468 249.362C55.4228 248.774 55.2608 248.084 55.2608 247.292V241.568C55.2608 240.776 55.4228 240.092 55.7468 239.516C56.0828 238.928 56.5568 238.478 57.1688 238.166C57.7928 237.842 58.5248 237.68 59.3648 237.68C60.2168 237.68 60.9488 237.842 61.5608 238.166C62.1728 238.478 62.6408 238.928 62.9648 239.516C63.3008 240.092 63.4688 240.77 63.4688 241.55V247.292C63.4688 248.084 63.3008 248.774 62.9648 249.362C62.6408 249.938 62.1728 250.388 61.5608 250.712C60.9488 251.024 60.2168 251.18 59.3648 251.18ZM59.3648 249.2C59.9768 249.2 60.4388 249.038 60.7508 248.714C61.0628 248.378 61.2188 247.904 61.2188 247.292V241.568C61.2188 240.944 61.0628 240.47 60.7508 240.146C60.4388 239.822 59.9768 239.66 59.3648 239.66C58.7528 239.66 58.2908 239.822 57.9788 240.146C57.6668 240.47 57.5108 240.944 57.5108 241.568V247.292C57.5108 247.904 57.6668 248.378 57.9788 248.714C58.3028 249.038 58.7648 249.2 59.3648 249.2ZM66.6118 251V237.86H68.8618V248.912H74.4418V251H66.6118ZM80.9508 251.18C80.1108 251.18 79.3788 251.024 78.7548 250.712C78.1428 250.388 77.6688 249.938 77.3328 249.362C77.0088 248.774 76.8468 248.084 76.8468 247.292V241.568C76.8468 240.776 77.0088 240.092 77.3328 239.516C77.6688 238.928 78.1428 238.478 78.7548 238.166C79.3788 237.842 80.1108 237.68 80.9508 237.68C81.8028 237.68 82.5348 237.842 83.1468 238.166C83.7588 238.478 84.2268 238.928 84.5508 239.516C84.8868 240.092 85.0548 240.77 85.0548 241.55V247.292C85.0548 248.084 84.8868 248.774 84.5508 249.362C84.2268 249.938 83.7588 250.388 83.1468 250.712C82.5348 251.024 81.8028 251.18 80.9508 251.18ZM80.9508 249.2C81.5628 249.2 82.0248 249.038 82.3368 248.714C82.6488 248.378 82.8048 247.904 82.8048 247.292V241.568C82.8048 240.944 82.6488 240.47 82.3368 240.146C82.0248 239.822 81.5628 239.66 80.9508 239.66C80.3388 239.66 79.8768 239.822 79.5648 240.146C79.2528 240.47 79.0968 240.944 79.0968 241.568V247.292C79.0968 247.904 79.2528 248.378 79.5648 248.714C79.8888 249.038 80.3508 249.2 80.9508 249.2ZM91.8158 251.18C90.9758 251.18 90.2378 251.024 89.6018 250.712C88.9778 250.388 88.4918 249.938 88.1438 249.362C87.8078 248.774 87.6398 248.084 87.6398 247.292V241.568C87.6398 240.764 87.8078 240.074 88.1438 239.498C88.4918 238.922 88.9778 238.478 89.6018 238.166C90.2378 237.842 90.9758 237.68 91.8158 237.68C92.6678 237.68 93.3998 237.842 94.0118 238.166C94.6358 238.478 95.1218 238.922 95.4698 239.498C95.8178 240.074 95.9918 240.764 95.9918 241.568H93.7238C93.7238 240.944 93.5558 240.47 93.2198 240.146C92.8958 239.822 92.4278 239.66 91.8158 239.66C91.2038 239.66 90.7298 239.822 90.3938 240.146C90.0578 240.47 89.8898 240.938 89.8898 241.55V247.292C89.8898 247.904 90.0578 248.378 90.3938 248.714C90.7298 249.05 91.2038 249.218 91.8158 249.218C92.4278 249.218 92.8958 249.05 93.2198 248.714C93.5558 248.378 93.7238 247.904 93.7238 247.292V245.96H91.4918V244.016H95.9918V247.292C95.9918 248.084 95.8178 248.774 95.4698 249.362C95.1218 249.938 94.6358 250.388 94.0118 250.712C93.3998 251.024 92.6678 251.18 91.8158 251.18ZM101.403 251V246.23L97.5507 237.86H99.9087L101.961 242.414C102.117 242.774 102.249 243.128 102.357 243.476C102.465 243.824 102.537 244.094 102.573 244.286C102.621 244.094 102.693 243.824 102.789 243.476C102.897 243.128 103.029 242.774 103.185 242.414L105.183 237.86H107.523L103.671 246.23V251H101.403ZM124.159 251.18C123.259 251.18 122.479 251.03 121.819 250.73C121.159 250.43 120.649 250.004 120.289 249.452C119.941 248.888 119.761 248.228 119.749 247.472H121.999C121.999 248.012 122.191 248.438 122.575 248.75C122.971 249.05 123.505 249.2 124.177 249.2C124.825 249.2 125.329 249.05 125.689 248.75C126.061 248.45 126.247 248.036 126.247 247.508C126.247 247.064 126.115 246.68 125.851 246.356C125.599 246.02 125.233 245.792 124.753 245.672L123.241 245.258C122.209 244.994 121.411 244.52 120.847 243.836C120.295 243.152 120.019 242.324 120.019 241.352C120.019 240.608 120.187 239.96 120.523 239.408C120.859 238.856 121.333 238.43 121.945 238.13C122.569 237.83 123.301 237.68 124.141 237.68C125.413 237.68 126.421 238.01 127.165 238.67C127.909 239.318 128.287 240.194 128.299 241.298H126.049C126.049 240.782 125.881 240.38 125.545 240.092C125.209 239.792 124.735 239.642 124.123 239.642C123.535 239.642 123.079 239.78 122.755 240.056C122.431 240.332 122.269 240.722 122.269 241.226C122.269 241.682 122.389 242.072 122.629 242.396C122.881 242.708 123.241 242.93 123.709 243.062L125.275 243.494C126.319 243.758 127.117 244.232 127.669 244.916C128.221 245.588 128.497 246.422 128.497 247.418C128.497 248.162 128.317 248.822 127.957 249.398C127.597 249.962 127.093 250.4 126.445 250.712C125.797 251.024 125.035 251.18 124.159 251.18ZM134.916 251.18C134.076 251.18 133.344 251.024 132.72 250.712C132.108 250.388 131.634 249.938 131.298 249.362C130.974 248.774 130.812 248.084 130.812 247.292V241.568C130.812 240.776 130.974 240.092 131.298 239.516C131.634 238.928 132.108 238.478 132.72 238.166C133.344 237.842 134.076 237.68 134.916 237.68C135.768 237.68 136.5 237.842 137.112 238.166C137.724 238.478 138.192 238.928 138.516 239.516C138.852 240.092 139.02 240.77 139.02 241.55V247.292C139.02 248.084 138.852 248.774 138.516 249.362C138.192 249.938 137.724 250.388 137.112 250.712C136.5 251.024 135.768 251.18 134.916 251.18ZM134.916 249.2C135.528 249.2 135.99 249.038 136.302 248.714C136.614 248.378 136.77 247.904 136.77 247.292V241.568C136.77 240.944 136.614 240.47 136.302 240.146C135.99 239.822 135.528 239.66 134.916 239.66C134.304 239.66 133.842 239.822 133.53 240.146C133.218 240.47 133.062 240.944 133.062 241.568V247.292C133.062 247.904 133.218 248.378 133.53 248.714C133.854 249.038 134.316 249.2 134.916 249.2ZM142.163 251V237.86H144.413V248.912H149.993V251H142.163ZM156.502 251.18C155.218 251.18 154.21 250.832 153.478 250.136C152.758 249.428 152.398 248.468 152.398 247.256V237.86H154.666V247.238C154.666 247.862 154.822 248.348 155.134 248.696C155.446 249.044 155.902 249.218 156.502 249.218C157.09 249.218 157.54 249.044 157.852 248.696C158.176 248.348 158.338 247.862 158.338 247.238V237.86H160.606V247.256C160.606 248.468 160.246 249.428 159.526 250.136C158.806 250.832 157.798 251.18 156.502 251.18ZM166.161 251V239.948H162.723V237.86H171.867V239.948H168.429V251H166.161ZM174.308 251V249.02H176.954V239.84H174.308V237.86H181.868V239.84H179.222V249.02H181.868V251H174.308ZM188.88 251.18C188.04 251.18 187.308 251.024 186.684 250.712C186.072 250.388 185.598 249.938 185.262 249.362C184.938 248.774 184.776 248.084 184.776 247.292V241.568C184.776 240.776 184.938 240.092 185.262 239.516C185.598 238.928 186.072 238.478 186.684 238.166C187.308 237.842 188.04 237.68 188.88 237.68C189.732 237.68 190.464 237.842 191.076 238.166C191.688 238.478 192.156 238.928 192.48 239.516C192.816 240.092 192.984 240.77 192.984 241.55V247.292C192.984 248.084 192.816 248.774 192.48 249.362C192.156 249.938 191.688 250.388 191.076 250.712C190.464 251.024 189.732 251.18 188.88 251.18ZM188.88 249.2C189.492 249.2 189.954 249.038 190.266 248.714C190.578 248.378 190.734 247.904 190.734 247.292V241.568C190.734 240.944 190.578 240.47 190.266 240.146C189.954 239.822 189.492 239.66 188.88 239.66C188.268 239.66 187.806 239.822 187.494 240.146C187.182 240.47 187.026 240.944 187.026 241.568V247.292C187.026 247.904 187.182 248.378 187.494 248.714C187.818 249.038 188.28 249.2 188.88 249.2ZM195.569 251V237.86H198.323L201.977 248.48C201.941 248.096 201.899 247.646 201.851 247.13C201.815 246.602 201.785 246.068 201.761 245.528C201.737 244.976 201.725 244.496 201.725 244.088V237.86H203.777V251H201.023L197.405 240.38C197.429 240.728 197.459 241.148 197.495 241.64C197.531 242.132 197.561 242.636 197.585 243.152C197.609 243.668 197.621 244.142 197.621 244.574V251H195.569ZM210.502 251.18C209.602 251.18 208.822 251.03 208.162 250.73C207.502 250.43 206.992 250.004 206.632 249.452C206.284 248.888 206.104 248.228 206.092 247.472H208.342C208.342 248.012 208.534 248.438 208.918 248.75C209.314 249.05 209.848 249.2 210.52 249.2C211.168 249.2 211.672 249.05 212.032 248.75C212.404 248.45 212.59 248.036 212.59 247.508C212.59 247.064 212.458 246.68 212.194 246.356C211.942 246.02 211.576 245.792 211.096 245.672L209.584 245.258C208.552 244.994 207.754 244.52 207.19 243.836C206.638 243.152 206.362 242.324 206.362 241.352C206.362 240.608 206.53 239.96 206.866 239.408C207.202 238.856 207.676 238.43 208.288 238.13C208.912 237.83 209.644 237.68 210.484 237.68C211.756 237.68 212.764 238.01 213.508 238.67C214.252 239.318 214.63 240.194 214.642 241.298H212.392C212.392 240.782 212.224 240.38 211.888 240.092C211.552 239.792 211.078 239.642 210.466 239.642C209.878 239.642 209.422 239.78 209.098 240.056C208.774 240.332 208.612 240.722 208.612 241.226C208.612 241.682 208.732 242.072 208.972 242.396C209.224 242.708 209.584 242.93 210.052 243.062L211.618 243.494C212.662 243.758 213.46 244.232 214.012 244.916C214.564 245.588 214.84 246.422 214.84 247.418C214.84 248.162 214.66 248.822 214.3 249.398C213.94 249.962 213.436 250.4 212.788 250.712C212.14 251.024 211.378 251.18 210.502 251.18Z" fill="#145F90"/>
</svg>
