<svg width="550" height="169" viewBox="0 0 550 169" fill="none" xmlns="http://www.w3.org/2000/svg">
<g clip-path="url(#clip0_15_2)">
<path d="M302.714 0H217.286V83.5714H302.714V0Z" fill="#6F58D9"/>
<path d="M345.429 40.8571H260V124.429H345.429V40.8571Z" fill="#A28CE6"/>
<path d="M12.0252 124.382C9.25494 124.382 7.19662 123.771 5.85019 122.548C4.51923 121.31 3.80733 119.368 3.71447 116.721C3.699 116.35 3.79958 116.056 4.01626 115.839C4.2484 115.607 4.55019 115.491 4.92162 115.491C5.29304 115.491 5.58708 115.599 5.80376 115.816C6.02043 116.033 6.14423 116.327 6.17519 116.698C6.23709 118.648 6.70137 120.01 7.56804 120.784C8.43472 121.558 9.92043 121.945 12.0252 121.945H18.7109C20.9085 121.945 22.433 121.519 23.2841 120.668C24.1508 119.801 24.5841 118.285 24.5841 116.118C24.5841 113.92 24.1508 112.396 23.2841 111.545C22.433 110.678 20.9085 110.245 18.7109 110.245H12.3502C9.62637 110.245 7.62994 109.61 6.3609 108.341C5.09186 107.072 4.45733 105.083 4.45733 102.375C4.45733 99.6667 5.08411 97.6779 6.33769 96.4089C7.60673 95.1399 9.59543 94.5054 12.3038 94.5054H18.8038C21.4038 94.5054 23.3305 95.0857 24.5841 96.2464C25.8531 97.4071 26.5341 99.2333 26.627 101.725C26.658 102.096 26.5573 102.398 26.3252 102.63C26.1085 102.847 25.8067 102.955 25.4198 102.955C25.0638 102.955 24.7776 102.847 24.5609 102.63C24.3442 102.414 24.2205 102.12 24.1895 101.748C24.1276 99.9685 23.6942 98.7226 22.8895 98.0107C22.0848 97.2989 20.7227 96.9429 18.8038 96.9429H12.3038C10.2764 96.9429 8.86804 97.3453 8.07876 98.15C7.28947 98.9393 6.89483 100.348 6.89483 102.375C6.89483 104.402 7.28947 105.819 8.07876 106.623C8.88351 107.412 10.3073 107.807 12.3502 107.807H18.7109C21.5895 107.807 23.6942 108.48 25.0252 109.827C26.3562 111.158 27.0216 113.255 27.0216 116.118C27.0216 118.981 26.3562 121.078 25.0252 122.409C23.6942 123.724 21.5895 124.382 18.7109 124.382H12.0252ZM44.1356 124.429C40.7773 124.429 38.3244 123.655 36.7766 122.107C35.2291 120.56 34.4552 118.106 34.4552 114.748V104.162C34.4552 100.773 35.2291 98.3125 36.7766 96.7804C38.3244 95.2328 40.7619 94.4743 44.0891 94.5054H49.707C53.0654 94.5054 55.5106 95.2792 57.0427 96.8268C58.5904 98.3743 59.3641 100.827 59.3641 104.186V114.748C59.3641 118.106 58.5904 120.56 57.0427 122.107C55.5106 123.655 53.0654 124.429 49.707 124.429H44.1356ZM44.1356 121.991H49.707C51.4869 121.991 52.9029 121.759 53.9552 121.295C55.0076 120.83 55.7659 120.072 56.2302 119.02C56.6945 117.967 56.9266 116.544 56.9266 114.748V104.186C56.9266 102.406 56.6945 100.99 56.2302 99.9375C55.7659 98.8851 55.0076 98.1268 53.9552 97.6625C52.9029 97.1828 51.4869 96.9429 49.707 96.9429H44.0891C42.3094 96.9274 40.8934 97.1518 39.8409 97.6161C38.8041 98.0649 38.0534 98.8232 37.5891 99.8911C37.1248 100.944 36.8927 102.367 36.8927 104.162V114.748C36.8927 116.544 37.1248 117.967 37.5891 119.02C38.0534 120.072 38.8119 120.83 39.8641 121.295C40.9166 121.759 42.3404 121.991 44.1356 121.991ZM68.6402 124.429C67.8199 124.429 67.4098 124.019 67.4098 123.198V95.7357C67.4098 94.9154 67.8199 94.5054 68.6402 94.5054C69.4449 94.5054 69.8473 94.9154 69.8473 95.7357V121.991H83.9616C84.7817 121.991 85.192 122.394 85.192 123.198C85.192 124.019 84.7817 124.429 83.9616 124.429H68.6402ZM100.072 124.429C96.7139 124.429 94.261 123.655 92.7134 122.107C91.1657 120.56 90.392 118.106 90.392 114.748V95.7357C90.392 95.3643 90.5002 95.0703 90.717 94.8536C90.9491 94.6214 91.2509 94.5054 91.6223 94.5054C91.9938 94.5054 92.2877 94.6214 92.5045 94.8536C92.721 95.0703 92.8295 95.3643 92.8295 95.7357V114.748C92.8295 116.544 93.0616 117.967 93.5259 119.02C93.9902 120.072 94.7485 120.83 95.8009 121.295C96.8532 121.759 98.277 121.991 100.072 121.991H105.644C107.423 121.991 108.84 121.759 109.892 121.295C110.944 120.83 111.703 120.072 112.167 119.02C112.631 117.967 112.863 116.544 112.863 114.748V95.7357C112.863 95.3643 112.972 95.0703 113.188 94.8536C113.421 94.6214 113.722 94.5054 114.094 94.5054C114.465 94.5054 114.759 94.6214 114.976 94.8536C115.192 95.0703 115.301 95.3643 115.301 95.7357V114.748C115.301 118.106 114.527 120.56 112.979 122.107C111.447 123.655 109.002 124.429 105.644 124.429H100.072ZM132.612 124.452C132.241 124.452 131.939 124.344 131.707 124.127C131.491 123.91 131.382 123.616 131.382 123.245V96.9196H121.516C121.145 96.9196 120.843 96.8114 120.611 96.5946C120.394 96.3779 120.286 96.0839 120.286 95.7125C120.286 95.3411 120.394 95.0471 120.611 94.8304C120.843 94.5982 121.145 94.4821 121.516 94.4821H143.709C144.08 94.4821 144.374 94.5982 144.591 94.8304C144.808 95.0471 144.916 95.3411 144.916 95.7125C144.916 96.0839 144.808 96.3779 144.591 96.5946C144.374 96.8114 144.08 96.9196 143.709 96.9196H133.82V123.245C133.82 123.601 133.704 123.895 133.471 124.127C133.255 124.344 132.968 124.452 132.612 124.452ZM151.341 124.429C150.954 124.429 150.652 124.32 150.436 124.104C150.219 123.887 150.111 123.585 150.111 123.198V95.7125C150.111 95.3257 150.219 95.0239 150.436 94.8071C150.652 94.5904 150.954 94.4821 151.341 94.4821C151.712 94.4821 152.006 94.5904 152.223 94.8071C152.44 95.0239 152.548 95.3257 152.548 95.7125V123.198C152.548 123.585 152.44 123.887 152.223 124.104C152.006 124.32 151.712 124.429 151.341 124.429ZM170.273 124.429C166.914 124.429 164.461 123.655 162.914 122.107C161.366 120.56 160.592 118.106 160.592 114.748V104.162C160.592 100.773 161.366 98.3125 162.914 96.7804C164.461 95.2328 166.899 94.4743 170.226 94.5054H175.844C179.202 94.5054 181.648 95.2792 183.18 96.8268C184.727 98.3743 185.501 100.827 185.501 104.186V114.748C185.501 118.106 184.727 120.56 183.18 122.107C181.648 123.655 179.202 124.429 175.844 124.429H170.273ZM170.273 121.991H175.844C177.624 121.991 179.04 121.759 180.092 121.295C181.145 120.83 181.903 120.072 182.367 119.02C182.832 117.967 183.064 116.544 183.064 114.748V104.186C183.064 102.406 182.832 100.99 182.367 99.9375C181.903 98.8851 181.145 98.1268 180.092 97.6625C179.04 97.1828 177.624 96.9429 175.844 96.9429H170.226C168.446 96.9274 167.03 97.1518 165.978 97.6161C164.941 98.0649 164.191 98.8232 163.726 99.8911C163.262 100.944 163.03 102.367 163.03 104.162V114.748C163.03 116.544 163.262 117.967 163.726 119.02C164.191 120.072 164.949 120.83 166.001 121.295C167.054 121.759 168.477 121.991 170.273 121.991ZM194.777 124.429C193.956 124.429 193.546 124.019 193.546 123.198V95.7357C193.546 94.9154 193.956 94.5054 194.777 94.5054C195.21 94.5054 195.628 94.7453 196.031 95.225L215.692 120.482H215.135V95.7357C215.135 94.9154 215.546 94.5054 216.367 94.5054C217.171 94.5054 217.574 94.9154 217.574 95.7357V123.198C217.574 124.019 217.171 124.429 216.367 124.429C215.917 124.429 215.499 124.189 215.113 123.709L195.427 98.4518H195.984V123.198C195.984 124.019 195.581 124.429 194.777 124.429ZM233.92 124.382C231.151 124.382 229.092 123.771 227.745 122.548C226.416 121.31 225.702 119.368 225.61 116.721C225.595 116.35 225.695 116.056 225.912 115.839C226.144 115.607 226.445 115.491 226.817 115.491C227.188 115.491 227.483 115.599 227.699 115.816C227.916 116.033 228.041 116.327 228.07 116.698C228.133 118.648 228.598 120.01 229.463 120.784C230.33 121.558 231.816 121.945 233.92 121.945H240.606C242.805 121.945 244.33 121.519 245.18 120.668C246.048 119.801 246.48 118.285 246.48 116.118C246.48 113.92 246.048 112.396 245.18 111.545C244.33 110.678 242.805 110.245 240.606 110.245H234.245C231.523 110.245 229.526 109.61 228.256 108.341C226.988 107.072 226.352 105.083 226.352 102.375C226.352 99.6667 226.98 97.6779 228.234 96.4089C229.502 95.1399 231.491 94.5054 234.199 94.5054H240.699C243.299 94.5054 245.227 95.0857 246.48 96.2464C247.749 97.4071 248.43 99.2333 248.523 101.725C248.555 102.096 248.452 102.398 248.22 102.63C248.005 102.847 247.702 102.955 247.316 102.955C246.959 102.955 246.673 102.847 246.456 102.63C246.241 102.414 246.116 102.12 246.085 101.748C246.023 99.9685 245.591 98.7226 244.785 98.0107C243.981 97.2989 242.619 96.9429 240.699 96.9429H234.199C232.173 96.9429 230.763 97.3453 229.974 98.15C229.185 98.9393 228.791 100.348 228.791 102.375C228.791 104.402 229.185 105.819 229.974 106.623C230.78 107.412 232.202 107.807 234.245 107.807H240.606C243.485 107.807 245.591 108.48 246.92 109.827C248.252 111.158 248.917 113.255 248.917 116.118C248.917 118.981 248.252 121.078 246.92 122.409C245.591 123.724 243.485 124.382 240.606 124.382H233.92ZM269.862 124.429C269.041 124.429 268.63 124.019 268.63 123.198V95.7357C268.63 94.9154 269.041 94.5054 269.862 94.5054H281.051C284.905 94.5054 287.705 95.3875 289.454 97.1518C291.219 98.9161 292.101 101.725 292.101 105.579V113.355C292.101 117.209 291.219 120.018 289.454 121.782C287.705 123.546 284.905 124.429 281.051 124.429H269.862ZM271.069 121.991H281.051C283.155 121.991 284.834 121.713 286.087 121.155C287.356 120.598 288.27 119.693 288.827 118.439C289.384 117.17 289.662 115.476 289.662 113.355V105.579C289.662 103.474 289.384 101.795 288.827 100.541C288.27 99.2721 287.356 98.3589 286.087 97.8018C284.834 97.2292 283.155 96.9429 281.051 96.9429H271.069V121.991ZM301.372 124.429C300.553 124.429 300.142 124.019 300.142 123.198V95.7357C300.142 94.9154 300.553 94.5054 301.372 94.5054H318.76C319.581 94.5054 319.99 94.9154 319.99 95.7357C319.99 96.5404 319.581 96.9429 318.76 96.9429H302.579V108.062H313.282C314.102 108.062 314.511 108.465 314.511 109.27C314.511 110.09 314.102 110.5 313.282 110.5H302.579V121.991H318.76C319.581 121.991 319.99 122.394 319.99 123.198C319.99 124.019 319.581 124.429 318.76 124.429H301.372ZM327.398 124.429C326.577 124.429 326.168 124.019 326.168 123.198V95.7357C326.168 94.9154 326.577 94.5054 327.398 94.5054H338.262C340.909 94.5054 342.905 95.1864 344.251 96.5482C345.613 97.9101 346.294 99.9143 346.294 102.561V103.954C346.294 106.585 345.613 108.581 344.251 109.943C342.905 111.305 340.909 111.986 338.262 111.986H328.605V123.198C328.605 124.019 328.202 124.429 327.398 124.429ZM328.605 109.548H338.262C340.212 109.548 341.629 109.107 342.511 108.225C343.408 107.327 343.858 105.904 343.858 103.954V102.561C343.858 100.595 343.408 99.1714 342.511 98.2893C341.629 97.3917 340.212 96.9429 338.262 96.9429H328.605V109.548ZM347.082 124.312C346.339 123.987 346.116 123.446 346.409 122.687L357.924 95.4571C358.171 94.8226 358.627 94.5054 359.292 94.5054H359.432C360.067 94.5208 360.516 94.8382 360.778 95.4571L372.292 122.687C372.602 123.446 372.385 123.987 371.642 124.312C370.885 124.622 370.359 124.405 370.064 123.662L366.977 116.35H351.771L348.684 123.662C348.374 124.405 347.841 124.622 347.082 124.312ZM352.77 113.912H365.956L359.363 98.3589L352.77 113.912ZM398.188 124.475C397.848 124.676 397.538 124.746 397.26 124.684C396.981 124.622 396.734 124.429 396.517 124.104L388.903 111.986H380.384V123.198C380.384 124.019 379.981 124.429 379.177 124.429C378.356 124.429 377.946 124.019 377.946 123.198V95.7357C377.946 94.9154 378.356 94.5054 379.177 94.5054H390.041C392.688 94.5054 394.684 95.1864 396.03 96.5482C397.392 97.9101 398.073 99.9143 398.073 102.561V103.954C398.073 106.29 397.538 108.124 396.47 109.455C395.403 110.786 393.824 111.599 391.735 111.893L398.584 122.804C399.017 123.515 398.885 124.073 398.188 124.475ZM380.384 109.548H390.041C391.991 109.548 393.406 109.107 394.288 108.225C395.187 107.327 395.635 105.904 395.635 103.954V102.561C395.635 100.595 395.187 99.1714 394.288 98.2893C393.406 97.3917 391.991 96.9429 390.041 96.9429H380.384V109.548ZM413.406 124.452C413.034 124.452 412.732 124.344 412.5 124.127C412.284 123.91 412.175 123.616 412.175 123.245V96.9196H402.309C401.938 96.9196 401.635 96.8114 401.403 96.5946C401.188 96.3779 401.078 96.0839 401.078 95.7125C401.078 95.3411 401.188 95.0471 401.403 94.8304C401.635 94.5982 401.938 94.4821 402.309 94.4821H424.502C424.874 94.4821 425.167 94.5982 425.384 94.8304C425.602 95.0471 425.709 95.3411 425.709 95.7125C425.709 96.0839 425.602 96.3779 425.384 96.5946C425.167 96.8114 424.874 96.9196 424.502 96.9196H414.613V123.245C414.613 123.601 414.496 123.895 414.264 124.127C414.048 124.344 413.762 124.452 413.406 124.452ZM432.135 124.429C431.314 124.429 430.904 124.019 430.904 123.198V95.7357C430.904 94.9154 431.314 94.5054 432.135 94.5054C432.722 94.5054 433.186 94.7761 433.528 95.3179L445.089 112.984L444.532 113.054L456.092 95.3179C456.417 94.7761 456.904 94.5054 457.554 94.5054C458.282 94.5054 458.646 94.9154 458.646 95.7357V123.198C458.646 124.019 458.243 124.429 457.439 124.429C456.618 124.429 456.207 124.019 456.207 123.198V98.1732L456.928 98.4054L446.203 114.748C445.861 115.274 445.375 115.537 444.74 115.537C444.182 115.537 443.733 115.274 443.393 114.748L432.668 98.4054L433.342 98.6607V123.198C433.342 124.019 432.939 124.429 432.135 124.429ZM468.543 124.429C467.722 124.429 467.311 124.019 467.311 123.198V95.7357C467.311 94.9154 467.722 94.5054 468.543 94.5054H485.929C486.75 94.5054 487.16 94.9154 487.16 95.7357C487.16 96.5404 486.75 96.9429 485.929 96.9429H469.75V108.062H480.45C481.271 108.062 481.682 108.465 481.682 109.27C481.682 110.09 481.271 110.5 480.45 110.5H469.75V121.991H485.929C486.75 121.991 487.16 122.394 487.16 123.198C487.16 124.019 486.75 124.429 485.929 124.429H468.543ZM494.568 124.429C493.748 124.429 493.337 124.019 493.337 123.198V95.7357C493.337 94.9154 493.748 94.5054 494.568 94.5054C495.001 94.5054 495.419 94.7453 495.822 95.225L515.484 120.482H514.926V95.7357C514.926 94.9154 515.337 94.5054 516.158 94.5054C516.962 94.5054 517.365 94.9154 517.365 95.7357V123.198C517.365 124.019 516.962 124.429 516.158 124.429C515.708 124.429 515.29 124.189 514.904 123.709L495.218 98.4518H495.776V123.198C495.776 124.019 495.373 124.429 494.568 124.429ZM534.872 124.452C534.501 124.452 534.2 124.344 533.968 124.127C533.75 123.91 533.643 123.616 533.643 123.245V96.9196H523.776C523.404 96.9196 523.103 96.8114 522.871 96.5946C522.654 96.3779 522.546 96.0839 522.546 95.7125C522.546 95.3411 522.654 95.0471 522.871 94.8304C523.103 94.5982 523.404 94.4821 523.776 94.4821H545.969C546.34 94.4821 546.635 94.5982 546.851 94.8304C547.068 95.0471 547.176 95.3411 547.176 95.7125C547.176 96.0839 547.068 96.3779 546.851 96.5946C546.635 96.8114 546.34 96.9196 545.969 96.9196H536.079V123.245C536.079 123.601 535.964 123.895 535.732 124.127C535.515 124.344 535.229 124.452 534.872 124.452Z" fill="white"/>
<path d="M91.6408 163.429C90.4615 163.429 89.5283 163.187 88.8412 162.704C88.154 162.212 87.7129 161.479 87.5179 160.504C87.4529 160.114 87.5272 159.807 87.7408 159.584C87.9636 159.362 88.2701 159.25 88.6601 159.25C89.0408 159.25 89.3147 159.348 89.4819 159.543C89.6583 159.728 89.8022 160.012 89.9137 160.392C90.0251 160.671 90.2108 160.857 90.4708 160.949C90.7401 161.042 91.1301 161.089 91.6408 161.089H96.2094C96.9337 161.089 97.4211 160.973 97.6719 160.741C97.9226 160.499 98.0479 160.002 98.0479 159.25C98.0479 158.507 97.9226 158.015 97.6719 157.774C97.4211 157.532 96.9337 157.412 96.2094 157.412H91.7244C90.3872 157.412 89.3797 157.073 88.7019 156.395C88.024 155.717 87.6851 154.709 87.6851 153.372C87.6851 152.007 88.0147 150.991 88.674 150.322C89.3426 149.644 90.3594 149.305 91.7244 149.305H96.0701C98.2522 149.305 99.5429 150.224 99.9422 152.063C100.017 152.453 99.9422 152.755 99.7194 152.968C99.4965 153.182 99.1901 153.289 98.8001 153.289C98.4379 153.289 98.1686 153.196 97.9922 153.01C97.8158 152.815 97.6765 152.546 97.5744 152.202C97.4629 151.979 97.2912 151.831 97.059 151.757C96.8362 151.682 96.5065 151.645 96.0701 151.645H91.7244C91.0186 151.645 90.559 151.752 90.3454 151.966C90.1319 152.179 90.0251 152.648 90.0251 153.372C90.0251 154.041 90.1365 154.491 90.3594 154.723C90.5915 154.956 91.0465 155.072 91.7244 155.072H96.2094C97.6022 155.072 98.6469 155.42 99.3433 156.116C100.04 156.813 100.388 157.857 100.388 159.25C100.388 160.652 100.04 161.702 99.3433 162.398C98.6469 163.085 97.6022 163.429 96.2094 163.429H91.6408ZM110.147 163.429C108.299 163.429 106.925 162.983 106.024 162.092C105.133 161.2 104.687 159.835 104.687 157.997V154.765C104.687 152.899 105.133 151.524 106.024 150.642C106.925 149.751 108.299 149.305 110.147 149.305H112.431C114.288 149.305 115.663 149.751 116.554 150.642C117.446 151.534 117.891 152.908 117.891 154.765V157.969C117.891 159.817 117.446 161.191 116.554 162.092C115.663 162.983 114.288 163.429 112.431 163.429H110.147ZM107.027 157.997C107.027 159.194 107.245 160.012 107.682 160.448C108.118 160.875 108.94 161.089 110.147 161.089H112.431C113.648 161.089 114.47 160.871 114.897 160.434C115.333 159.998 115.551 159.176 115.551 157.969V154.765C115.551 153.549 115.333 152.727 114.897 152.3C114.47 151.863 113.648 151.645 112.431 151.645H110.147C109.339 151.645 108.708 151.738 108.253 151.924C107.807 152.1 107.491 152.416 107.306 152.871C107.12 153.317 107.027 153.948 107.027 154.765V157.997ZM127.218 163.429C125.797 163.429 124.738 163.081 124.042 162.384C123.355 161.678 123.011 160.615 123.011 159.194V144.987C123.011 144.207 123.401 143.817 124.181 143.817C124.961 143.817 125.351 144.207 125.351 144.987V159.194C125.351 159.947 125.472 160.453 125.713 160.713C125.964 160.963 126.466 161.089 127.218 161.089C128.016 161.089 128.416 161.479 128.416 162.259C128.443 163.039 128.044 163.429 127.218 163.429ZM144.037 149.305C144.817 149.305 145.207 149.695 145.207 150.475V162.259C145.207 163.039 144.817 163.429 144.037 163.429C143.257 163.429 142.867 163.039 142.867 162.259V161.799C141.883 162.886 140.434 163.429 138.521 163.429H137.741C135.894 163.429 134.519 162.983 133.619 162.092C132.727 161.191 132.281 159.817 132.281 157.969V150.475C132.281 149.695 132.671 149.305 133.451 149.305C134.231 149.305 134.621 149.695 134.621 150.475V157.969C134.621 159.176 134.84 159.998 135.276 160.434C135.722 160.871 136.544 161.089 137.741 161.089H138.521C139.636 161.089 140.606 160.959 141.432 160.699C142.268 160.439 142.746 160.039 142.867 159.501V150.475C142.867 149.695 143.257 149.305 144.037 149.305ZM156.966 163.429C155.127 163.429 153.772 162.992 152.899 162.119C152.026 161.247 151.589 159.9 151.589 158.08V151.645H150.224C149.444 151.645 149.054 151.255 149.054 150.475C149.054 149.695 149.444 149.305 150.224 149.305H151.589V147.272C151.589 146.492 151.979 146.102 152.759 146.102C153.539 146.102 153.929 146.492 153.929 147.272V149.305H157.133C157.913 149.305 158.303 149.695 158.303 150.475C158.303 151.255 157.913 151.645 157.133 151.645H153.929V158.08C153.929 159.259 154.143 160.058 154.57 160.476C154.997 160.884 155.796 161.089 156.966 161.089C157.328 161.089 157.611 161.182 157.815 161.367C158.029 161.553 158.136 161.85 158.136 162.259C158.136 163.039 157.746 163.429 156.966 163.429ZM163.455 147.021C162.573 147.021 162.132 146.575 162.132 145.684V144.862C162.132 143.989 162.573 143.553 163.455 143.553H164.263C165.108 143.553 165.53 143.989 165.53 144.862V145.684C165.53 146.575 165.108 147.021 164.263 147.021H163.455ZM163.845 163.429C163.065 163.429 162.675 163.039 162.675 162.259V150.475C162.675 149.695 163.065 149.305 163.845 149.305C164.625 149.305 165.015 149.695 165.015 150.475V162.259C165.015 163.039 164.625 163.429 163.845 163.429ZM175.601 163.429C173.753 163.429 172.378 162.983 171.478 162.092C170.586 161.2 170.141 159.835 170.141 157.997V154.765C170.141 152.899 170.586 151.524 171.478 150.642C172.378 149.751 173.753 149.305 175.601 149.305H177.885C179.742 149.305 181.116 149.751 182.008 150.642C182.899 151.534 183.345 152.908 183.345 154.765V157.969C183.345 159.817 182.899 161.191 182.008 162.092C181.116 162.983 179.742 163.429 177.885 163.429H175.601ZM172.481 157.997C172.481 159.194 172.699 160.012 173.135 160.448C173.572 160.875 174.393 161.089 175.601 161.089H177.885C179.101 161.089 179.923 160.871 180.35 160.434C180.787 159.998 181.005 159.176 181.005 157.969V154.765C181.005 153.549 180.787 152.727 180.35 152.3C179.923 151.863 179.101 151.645 177.885 151.645H175.601C174.793 151.645 174.161 151.738 173.706 151.924C173.261 152.1 172.945 152.416 172.759 152.871C172.573 153.317 172.481 153.948 172.481 154.765V157.997ZM189.635 163.429C188.855 163.429 188.465 163.039 188.465 162.259V150.475C188.465 149.695 188.855 149.305 189.635 149.305C190.415 149.305 190.805 149.695 190.805 150.475V150.935C191.789 149.848 193.238 149.305 195.151 149.305H195.931C197.788 149.305 199.162 149.751 200.053 150.642C200.945 151.534 201.391 152.908 201.391 154.765V162.259C201.391 163.039 201.001 163.429 200.221 163.429C199.441 163.429 199.051 163.039 199.051 162.259V154.765C199.051 153.549 198.828 152.727 198.382 152.3C197.946 151.863 197.128 151.645 195.931 151.645H195.151C194.036 151.645 193.065 151.775 192.239 152.035C191.412 152.286 190.935 152.685 190.805 153.233V162.259C190.805 163.039 190.415 163.429 189.635 163.429ZM210.225 163.429C209.046 163.429 208.112 163.187 207.424 162.704C206.737 162.212 206.297 161.479 206.102 160.504C206.037 160.114 206.111 159.807 206.325 159.584C206.548 159.362 206.854 159.25 207.244 159.25C207.625 159.25 207.898 159.348 208.065 159.543C208.242 159.728 208.386 160.012 208.498 160.392C208.609 160.671 208.795 160.857 209.055 160.949C209.324 161.042 209.714 161.089 210.225 161.089H214.794C215.518 161.089 216.004 160.973 216.255 160.741C216.506 160.499 216.632 160.002 216.632 159.25C216.632 158.507 216.506 158.015 216.255 157.774C216.004 157.532 215.518 157.412 214.794 157.412H210.309C208.971 157.412 207.963 157.073 207.285 156.395C206.607 155.717 206.269 154.709 206.269 153.372C206.269 152.007 206.598 150.991 207.257 150.322C207.926 149.644 208.944 149.305 210.309 149.305H214.654C216.836 149.305 218.127 150.224 218.526 152.063C218.601 152.453 218.526 152.755 218.304 152.968C218.081 153.182 217.774 153.289 217.384 153.289C217.022 153.289 216.753 153.196 216.576 153.01C216.4 152.815 216.261 152.546 216.159 152.202C216.047 151.979 215.874 151.831 215.642 151.757C215.419 151.682 215.091 151.645 214.654 151.645H210.309C209.603 151.645 209.142 151.752 208.929 151.966C208.715 152.179 208.609 152.648 208.609 153.372C208.609 154.041 208.721 154.491 208.944 154.723C209.176 154.956 209.631 155.072 210.309 155.072H214.794C216.186 155.072 217.23 155.42 217.927 156.116C218.623 156.813 218.972 157.857 218.972 159.25C218.972 160.652 218.623 161.702 217.927 162.398C217.23 163.085 216.186 163.429 214.794 163.429H210.225ZM238.66 163.429C236.821 163.429 235.465 162.992 234.593 162.119C233.72 161.247 233.283 159.9 233.283 158.08V151.645H231.918C231.138 151.645 230.748 151.255 230.748 150.475C230.748 149.695 231.138 149.305 231.918 149.305H233.283V147.272C233.283 146.492 233.673 146.102 234.453 146.102C235.233 146.102 235.623 146.492 235.623 147.272V149.305H238.827C239.607 149.305 239.997 149.695 239.997 150.475C239.997 151.255 239.607 151.645 238.827 151.645H235.623V158.08C235.623 159.259 235.837 160.058 236.264 160.476C236.691 160.884 237.49 161.089 238.66 161.089C239.022 161.089 239.306 161.182 239.51 161.367C239.724 161.553 239.83 161.85 239.83 162.259C239.83 163.039 239.44 163.429 238.66 163.429ZM245.539 163.429C244.759 163.429 244.369 163.039 244.369 162.259V144.987C244.369 144.207 244.759 143.817 245.539 143.817C246.319 143.817 246.709 144.207 246.709 144.987V150.935C247.693 149.848 249.141 149.305 251.054 149.305H251.834C253.691 149.305 255.066 149.751 255.957 150.642C256.849 151.534 257.294 152.908 257.294 154.765V162.259C257.294 163.039 256.904 163.429 256.124 163.429C255.344 163.429 254.954 163.039 254.954 162.259V154.765C254.954 153.549 254.731 152.727 254.286 152.3C253.849 151.863 253.032 151.645 251.834 151.645H251.054C249.94 151.645 248.971 151.775 248.144 152.035C247.318 152.286 246.839 152.685 246.709 153.233V162.259C246.709 163.039 246.319 163.429 245.539 163.429ZM266.615 163.429C265.055 163.429 263.895 163.048 263.133 162.287C262.372 161.525 261.991 160.364 261.991 158.804C261.991 157.244 262.368 156.084 263.12 155.322C263.882 154.561 265.046 154.18 266.615 154.18H272.508C272.452 153.205 272.196 152.541 271.741 152.188C271.286 151.826 270.506 151.645 269.401 151.645H267.785C266.857 151.645 266.166 151.71 265.711 151.84C265.256 151.961 264.935 152.184 264.749 152.509C264.582 152.899 264.411 153.168 264.234 153.317C264.058 153.465 263.792 153.539 263.44 153.539C263.05 153.539 262.743 153.433 262.52 153.219C262.297 152.996 262.232 152.704 262.325 152.342C262.604 151.292 263.185 150.526 264.067 150.043C264.959 149.551 266.197 149.305 267.785 149.305H269.401C271.258 149.305 272.632 149.751 273.524 150.642C274.415 151.534 274.861 152.908 274.861 154.765V162.259C274.861 163.039 274.471 163.429 273.691 163.429C272.911 163.429 272.521 163.039 272.521 162.259V161.632C271.527 162.83 270.079 163.429 268.175 163.429H266.615ZM266.615 161.089H268.175C268.862 161.089 269.509 161.028 270.112 160.908C270.716 160.778 271.23 160.546 271.657 160.211C272.094 159.877 272.382 159.399 272.521 158.777V156.52H266.615C265.696 156.52 265.083 156.673 264.777 156.98C264.48 157.286 264.331 157.894 264.331 158.804C264.331 159.724 264.48 160.337 264.777 160.643C265.083 160.94 265.696 161.089 266.615 161.089ZM286.349 163.429C284.511 163.429 283.155 162.992 282.282 162.119C281.409 161.247 280.973 159.9 280.973 158.08V151.645H279.608C278.828 151.645 278.438 151.255 278.438 150.475C278.438 149.695 278.828 149.305 279.608 149.305H280.973V147.272C280.973 146.492 281.363 146.102 282.143 146.102C282.923 146.102 283.313 146.492 283.313 147.272V149.305H286.516C287.296 149.305 287.686 149.695 287.686 150.475C287.686 151.255 287.296 151.645 286.516 151.645H283.313V158.08C283.313 159.259 283.526 160.058 283.954 160.476C284.381 160.884 285.179 161.089 286.349 161.089C286.711 161.089 286.994 161.182 287.198 161.367C287.412 161.553 287.519 161.85 287.519 162.259C287.519 163.039 287.129 163.429 286.349 163.429ZM301.598 147.021C300.716 147.021 300.274 146.575 300.274 145.684V144.862C300.274 143.989 300.716 143.553 301.598 143.553H302.406C303.251 143.553 303.673 143.989 303.673 144.862V145.684C303.673 146.575 303.251 147.021 302.406 147.021H301.598ZM301.988 163.429C301.208 163.429 300.818 163.039 300.818 162.259V150.475C300.818 149.695 301.208 149.305 301.988 149.305C302.768 149.305 303.158 149.695 303.158 150.475V162.259C303.158 163.039 302.768 163.429 301.988 163.429ZM310.123 163.429C309.343 163.429 308.953 163.039 308.953 162.259V150.475C308.953 149.695 309.343 149.305 310.123 149.305C310.903 149.305 311.293 149.695 311.293 150.475V150.935C312.277 149.848 313.725 149.305 315.638 149.305H316.418C318.275 149.305 319.65 149.751 320.541 150.642C321.433 151.534 321.878 152.908 321.878 154.765V162.259C321.878 163.039 321.488 163.429 320.708 163.429C319.928 163.429 319.538 163.039 319.538 162.259V154.765C319.538 153.549 319.315 152.727 318.87 152.3C318.433 151.863 317.616 151.645 316.418 151.645H315.638C314.524 151.645 313.553 151.775 312.726 152.035C311.9 152.286 311.423 152.685 311.293 153.233V162.259C311.293 163.039 310.903 163.429 310.123 163.429ZM330.711 163.429C329.532 163.429 328.599 163.187 327.912 162.704C327.225 162.212 326.783 161.479 326.588 160.504C326.523 160.114 326.597 159.807 326.811 159.584C327.034 159.362 327.34 159.25 327.73 159.25C328.111 159.25 328.386 159.348 328.553 159.543C328.729 159.728 328.872 160.012 328.984 160.392C329.095 160.671 329.281 160.857 329.541 160.949C329.81 161.042 330.2 161.089 330.711 161.089H335.279C336.004 161.089 336.492 160.973 336.743 160.741C336.994 160.499 337.118 160.002 337.118 159.25C337.118 158.507 336.994 158.015 336.743 157.774C336.492 157.532 336.004 157.412 335.279 157.412H330.794C329.457 157.412 328.451 157.073 327.773 156.395C327.095 155.717 326.755 154.709 326.755 153.372C326.755 152.007 327.086 150.991 327.745 150.322C328.414 149.644 329.429 149.305 330.794 149.305H335.14C337.322 149.305 338.613 150.224 339.012 152.063C339.087 152.453 339.012 152.755 338.789 152.968C338.567 153.182 338.26 153.289 337.87 153.289C337.508 153.289 337.239 153.196 337.062 153.01C336.886 152.815 336.747 152.546 336.644 152.202C336.533 151.979 336.362 151.831 336.13 151.757C335.907 151.682 335.577 151.645 335.14 151.645H330.794C330.089 151.645 329.63 151.752 329.416 151.966C329.203 152.179 329.095 152.648 329.095 153.372C329.095 154.041 329.207 154.491 329.429 154.723C329.662 154.956 330.117 155.072 330.794 155.072H335.279C336.672 155.072 337.718 155.42 338.414 156.116C339.111 156.813 339.458 157.857 339.458 159.25C339.458 160.652 339.111 161.702 338.414 162.398C337.718 163.085 336.672 163.429 335.279 163.429H330.711ZM345.596 169C344.816 169 344.426 168.61 344.426 167.83V150.475C344.426 149.695 344.816 149.305 345.596 149.305C346.376 149.305 346.766 149.695 346.766 150.475V150.823C347.267 150.322 347.886 149.946 348.619 149.695C349.362 149.435 350.192 149.305 351.112 149.305H352.17C354.027 149.305 355.402 149.751 356.293 150.642C357.184 151.534 357.63 152.908 357.63 154.765V157.969C357.63 159.817 357.184 161.191 356.293 162.092C355.402 162.983 354.027 163.429 352.17 163.429H346.766V167.83C346.766 168.61 346.376 169 345.596 169ZM346.766 161.089H352.17C353.387 161.089 354.209 160.871 354.636 160.434C355.073 159.998 355.29 159.176 355.29 157.969V154.765C355.29 153.549 355.073 152.727 354.636 152.3C354.209 151.863 353.387 151.645 352.17 151.645H351.112C349.951 151.645 348.948 151.784 348.103 152.063C347.258 152.342 346.812 152.783 346.766 153.386V161.089ZM363.541 147.021C362.659 147.021 362.219 146.575 362.219 145.684V144.862C362.219 143.989 362.659 143.553 363.541 143.553H364.349C365.194 143.553 365.618 143.989 365.618 144.862V145.684C365.618 146.575 365.194 147.021 364.349 147.021H363.541ZM363.931 163.429C363.151 163.429 362.761 163.039 362.761 162.259V150.475C362.761 149.695 363.151 149.305 363.931 149.305C364.711 149.305 365.101 149.695 365.101 150.475V162.259C365.101 163.039 364.711 163.429 363.931 163.429ZM372.066 163.429C371.286 163.429 370.896 163.039 370.896 162.259V150.475C370.896 149.695 371.286 149.305 372.066 149.305C372.846 149.305 373.236 149.695 373.236 150.475V151.562C373.784 150.819 374.48 150.257 375.325 149.876C376.179 149.496 377.154 149.305 378.25 149.305C379.03 149.305 379.42 149.695 379.42 150.475C379.42 151.255 379.03 151.645 378.25 151.645C376.644 151.645 375.418 151.942 374.573 152.537C373.728 153.131 373.282 153.916 373.236 154.891V162.259C373.236 163.039 372.846 163.429 372.066 163.429ZM383.912 157.328V157.997C383.912 159.194 384.13 160.012 384.566 160.448C385.003 160.875 385.825 161.089 387.032 161.089H389.317C390.264 161.089 390.964 161.001 391.419 160.824C391.874 160.648 392.177 160.337 392.325 159.891C392.427 159.538 392.567 159.269 392.743 159.083C392.929 158.897 393.207 158.804 393.579 158.804C393.969 158.804 394.266 158.907 394.47 159.111C394.675 159.315 394.74 159.612 394.665 160.002C394.461 161.154 393.913 162.013 393.022 162.579C392.13 163.146 390.895 163.429 389.317 163.429H387.032C385.185 163.429 383.81 162.983 382.91 162.092C382.018 161.2 381.572 159.835 381.572 157.997V154.765C381.572 152.88 382.018 151.497 382.91 150.614C383.81 149.723 385.185 149.287 387.032 149.305H389.317C391.174 149.305 392.548 149.751 393.44 150.642C394.331 151.524 394.777 152.899 394.777 154.765V156.158C394.777 156.938 394.387 157.328 393.607 157.328H383.912ZM387.032 151.645C385.825 151.627 385.003 151.836 384.566 152.272C384.13 152.708 383.912 153.539 383.912 154.765V154.988H392.437V154.765C392.437 153.549 392.218 152.727 391.781 152.3C391.354 151.863 390.533 151.645 389.317 151.645H387.032Z" fill="white"/>
</g>
<defs>
<clipPath id="clip0_15_2">
<rect width="549.714" height="169" fill="white"/>
</clipPath>
</defs>
</svg>
